<svg width="21" height="20" viewBox="0 0 21 20" fill="none" xmlns="http://www.w3.org/2000/svg">
<path d="M6.13542 15.8334C6.90056 15.8334 7.52083 16.5423 7.52083 17.4167C7.52083 18.2911 6.90056 19 6.13542 19C5.37027 19 4.75 18.2911 4.75 17.4167C4.75 16.5423 5.37027 15.8334 6.13542 15.8334Z" fill="white" stroke="white"/>
<path d="M15.2396 15.8334C16.0047 15.8334 16.625 16.5422 16.625 17.4167C16.625 18.2911 16.0047 19 15.2396 19C14.4745 19 13.8542 18.2911 13.8542 17.4167C13.8542 16.5422 14.4745 15.8334 15.2396 15.8334Z" fill="white" stroke="white"/>
<path d="M1.00301 0.0434229C0.610658 -0.0964185 0.180772 0.112657 0.0428347 0.510389C-0.0951125 0.908131 0.111131 1.34392 0.503475 1.48375L1.00301 0.0434229ZM19.4867 7.76914L20.2242 7.92329L20.2252 7.91861L19.4867 7.76914ZM4.47636 7.6442V4.874H2.97028V7.6442H4.47636ZM1.26528 0.136891L1.00301 0.0434229L0.503475 1.48375L0.765745 1.57723L1.26528 0.136891ZM9.72699 14.25H15.0514V12.7232H9.72699V14.25ZM4.47636 4.874C4.47636 4.15422 4.47739 3.55359 4.42527 3.06551C4.37132 2.56027 4.25444 2.09947 3.97131 1.67947L2.72783 2.54087C2.81846 2.67532 2.88844 2.85998 2.92793 3.22981C2.96926 3.6168 2.97028 4.12085 2.97028 4.874H4.47636ZM0.765745 1.57723C1.43606 1.81614 1.87659 1.97446 2.20075 2.1357C2.5052 2.28713 2.63941 2.40971 2.72783 2.54087L3.97131 1.67947C3.68598 1.25619 3.3066 0.9851 2.86418 0.765043C2.44145 0.554777 1.90183 0.363768 1.26528 0.136891L0.765745 1.57723ZM2.97028 7.6442C2.97028 9.12262 2.98396 10.1887 3.12157 11.0032C3.26848 11.8727 3.56181 12.4953 4.11025 13.0817L5.2032 12.0313C4.88174 11.6876 4.70835 11.351 4.60604 10.7455C4.49443 10.0848 4.47636 9.15977 4.47636 7.6442H2.97028ZM9.72699 12.7232C8.30444 12.7232 7.31739 12.7214 6.57371 12.6145C5.85601 12.5113 5.47684 12.3238 5.2032 12.0313L4.11025 13.0817C4.70652 13.7193 5.46239 13.9969 6.36226 14.1261C7.23617 14.2518 8.34928 14.25 9.72699 14.25V12.7232ZM3.72332 4.70264H15.9032V3.17587H3.72332V4.70264ZM18.7491 7.61504L18.2474 10.0831L19.7225 10.3913L20.2242 7.92329L18.7491 7.61504ZM15.9032 4.70264C16.7631 4.70264 17.5199 4.70365 18.1171 4.77133C18.4139 4.80496 18.636 4.85168 18.792 4.90727C18.9541 4.965 18.9799 5.00928 18.9669 4.9921L20.1606 4.06117C19.9247 3.7503 19.5929 3.57431 19.2913 3.46684C18.9836 3.35723 18.6356 3.29381 18.2845 3.25402C17.5858 3.17486 16.7352 3.17587 15.9032 3.17587V4.70264ZM20.2252 7.91861C20.3951 7.05555 20.5394 6.33143 20.5747 5.7514C20.611 5.15474 20.544 4.56642 20.1606 4.06117L18.9669 4.9921C19.0292 5.07423 19.0979 5.22211 19.0714 5.65734C19.0439 6.1092 18.9269 6.71265 18.7482 7.61972L20.2252 7.91861ZM15.0514 14.25C15.8162 14.25 16.458 14.2513 16.9754 14.1871C17.5132 14.1204 18.0038 13.9746 18.4321 13.6208L17.4806 12.4372C17.3549 12.541 17.1767 12.624 16.7924 12.6717C16.3876 12.7219 15.8539 12.7232 15.0514 12.7232V14.25ZM18.2474 10.0831C18.0854 10.8798 17.9763 11.4095 17.8461 11.8013C17.7225 12.1731 17.6063 12.3334 17.4806 12.4372L18.4321 13.6208C18.8603 13.267 19.1003 12.8093 19.2734 12.2888C19.4398 11.788 19.568 11.1506 19.7225 10.3913L18.2474 10.0831Z" fill="white"/>
<path d="M11.875 11.0833V9.10417V11.0833ZM11.875 9.10417V7.125V9.10417ZM11.875 9.10417H13.8542H11.875ZM11.875 9.10417H9.89584H11.875Z" fill="white"/>
<path d="M11.875 11.0833V9.10417M11.875 9.10417V7.125M11.875 9.10417H13.8542M11.875 9.10417H9.89584" stroke="white" stroke-width="2" stroke-linecap="round"/>
</svg>
