<svg width="10" height="17" viewBox="0 0 10 17" fill="none" xmlns="http://www.w3.org/2000/svg">
<path d="M1.08744 16.1378C0.86489 15.9152 0.739868 15.6133 0.739868 15.2986C0.739868 14.9838 0.86489 14.6819 1.08744 14.4593L6.96366 8.58304L1.08744 2.70682C0.871197 2.48293 0.751542 2.18306 0.754247 1.8718C0.756951 1.56055 0.881799 1.2628 1.1019 1.0427C1.322 0.822602 1.61974 0.697755 1.931 0.69505C2.24226 0.692346 2.54213 0.812 2.76602 1.02824L9.48153 7.74375C9.70408 7.96637 9.8291 8.26826 9.8291 8.58304C9.8291 8.89782 9.70408 9.19972 9.48153 9.42233L2.76602 16.1378C2.5434 16.3604 2.24151 16.4854 1.92673 16.4854C1.61195 16.4854 1.31006 16.3604 1.08744 16.1378Z" fill="white"/>
</svg>
