<svg width="17" height="17" viewBox="0 0 17 17" fill="none" xmlns="http://www.w3.org/2000/svg">
<path d="M16 13.2475C16 13.5175 15.9399 13.795 15.8122 14.065C15.6845 14.335 15.5193 14.59 15.3015 14.83C14.9334 15.235 14.5278 15.5275 14.0696 15.715C13.6189 15.9025 13.1307 16 12.6049 16C11.8388 16 11.02 15.82 10.1562 15.4525C9.29244 15.085 8.42864 14.59 7.57236 13.9675C6.69963 13.3301 5.87608 12.6281 5.10866 11.8675C4.3491 11.104 3.64855 10.2842 3.01302 9.415C2.3971 8.56 1.90135 7.705 1.54081 6.8575C1.18027 6.0025 1 5.185 1 4.405C1 3.895 1.09014 3.4075 1.27041 2.9575C1.45068 2.5 1.7361 2.08 2.1342 1.705C2.61492 1.2325 3.14071 1 3.69654 1C3.90686 1 4.11718 1.045 4.30496 1.135C4.50025 1.225 4.67301 1.36 4.80821 1.555L6.55083 4.0075C6.68603 4.195 6.78368 4.3675 6.85128 4.5325C6.91888 4.69 6.95644 4.8475 6.95644 4.99C6.95644 5.17 6.90386 5.35 6.7987 5.5225C6.70105 5.695 6.55834 5.875 6.37807 6.055L5.80721 6.6475C5.72459 6.73 5.68703 6.8275 5.68703 6.9475C5.68703 7.0075 5.69454 7.06 5.70956 7.12C5.7321 7.18 5.75463 7.225 5.76965 7.27C5.90486 7.5175 6.13771 7.84 6.4682 8.23C6.80621 8.62 7.16675 9.0175 7.55734 9.415C7.96294 9.8125 8.35353 10.18 8.75163 10.5175C9.14221 10.8475 9.4652 11.0725 9.72058 11.2075C9.75814 11.2225 9.8032 11.245 9.85578 11.2675C9.91587 11.29 9.97596 11.2975 10.0436 11.2975C10.1713 11.2975 10.2689 11.2525 10.3515 11.17L10.9224 10.6075C11.1102 10.42 11.2904 10.2775 11.4632 10.1875C11.636 10.0825 11.8087 10.03 11.9965 10.03C12.1392 10.03 12.2894 10.06 12.4547 10.1275C12.6199 10.195 12.7927 10.2925 12.9805 10.42L15.4667 12.1825C15.662 12.3175 15.7972 12.475 15.8798 12.6625C15.9549 12.85 16 13.0375 16 13.2475Z" stroke="#545FDD" stroke-width="1.5" stroke-miterlimit="10"/>
</svg>
