<svg width="28" height="26" viewBox="0 0 28 26" fill="none" xmlns="http://www.w3.org/2000/svg">
<path d="M14 17.9C16.1539 17.9 17.9 16.1539 17.9 14C17.9 11.8461 16.1539 10.1 14 10.1C11.8461 10.1 10.1 11.8461 10.1 14C10.1 16.1539 11.8461 17.9 14 17.9Z" stroke="white" stroke-width="2"/>
<path d="M11.1111 24.4H16.8889C20.9463 24.4 22.9749 24.4 24.4322 23.444C25.063 23.0301 25.6047 22.4982 26.0263 21.8789C27 20.4481 27 18.4563 27 14.4727C27 10.4892 27 8.49737 26.0263 7.06658C25.6047 6.44718 25.063 5.91535 24.4322 5.50148C23.4957 4.88717 22.3235 4.6676 20.5286 4.58912C19.672 4.58912 18.9347 3.95188 18.7667 3.12727C18.5146 1.89036 17.4085 1 16.1238 1H11.8762C10.5915 1 9.48529 1.89036 9.23333 3.12727C9.06536 3.95188 8.3279 4.58912 7.4714 4.58912C5.67653 4.6676 4.50421 4.88717 3.56781 5.50148C2.93693 5.91535 2.39526 6.44718 1.97373 7.06658C1 8.49737 1 10.4892 1 14.4727C1 18.4563 1 20.4481 1.97373 21.8789C2.39526 22.4982 2.93693 23.0301 3.56781 23.444C5.02511 24.4 7.05377 24.4 11.1111 24.4Z" stroke="white" stroke-width="2"/>
<path d="M23.1 10.1H21.8" stroke="white" stroke-width="2" stroke-linecap="round"/>
</svg>
