<svg width="18" height="18" viewBox="0 0 18 18" fill="none" xmlns="http://www.w3.org/2000/svg">
<path d="M9.44022 17.1H9.44048C10.9905 17.0965 12.5103 16.6702 13.8372 15.8667C15.164 15.0631 16.2478 13.9127 16.9724 12.5387L16.9724 12.5388L16.9738 12.5361C17.075 12.3294 17.1166 12.0984 17.094 11.8693C17.0714 11.6402 16.9854 11.4219 16.8456 11.2391C16.7059 11.0563 16.518 10.9163 16.3031 10.8348C16.0882 10.7533 15.8549 10.7336 15.6294 10.778L15.6294 10.778L15.6279 10.7783C14.3368 11.053 12.9954 10.9689 11.7485 10.5349C10.1297 9.96591 8.76781 8.83388 7.90991 7.34405C7.05713 5.86311 6.75855 4.12619 7.0671 2.44492L7.08892 2.4466L7.10533 2.35824C7.14824 2.12716 7.12326 1.88856 7.03343 1.67144C6.9438 1.45481 6.79344 1.26885 6.60055 1.13612C6.41167 0.997815 6.1872 0.916656 5.9537 0.902301C5.71972 0.887916 5.48656 0.941214 5.28194 1.05583C4.15491 1.68124 3.18464 2.5557 2.44466 3.61294C1.70465 4.67021 1.21436 5.88252 1.0109 7.158C0.647423 9.39833 1.18543 11.6918 2.50682 13.5347C3.82824 15.3776 5.82508 16.6193 8.0588 16.9869L8.05882 16.9869C8.51548 17.062 8.97746 17.0998 9.44022 17.1ZM3.59179 12.7414L3.59169 12.7412C3.00438 11.9208 2.59579 10.9857 2.3925 9.99649C2.18922 9.00731 2.19578 7.9863 2.41178 6.99983C2.62777 6.01337 3.04836 5.08355 3.64617 4.27082C4.20162 3.51569 4.89851 2.87736 5.69712 2.39113C5.38841 4.33409 5.75587 6.32705 6.74161 8.03329C7.76352 9.80214 9.38256 11.1462 11.3063 11.8227L11.3069 11.8229C12.6968 12.3016 14.1839 12.4185 15.629 12.1643C15.0552 13.1567 14.2525 13.9981 13.287 14.6169C12.2619 15.274 11.087 15.6587 9.87286 15.735C8.65871 15.8112 7.44517 15.5765 6.34638 15.0528C5.24759 14.5291 4.29966 13.7337 3.59179 12.7414Z" fill="#545FDD" stroke="#545FDD" stroke-width="0.2"/>
</svg>
