<svg width="18" height="17" viewBox="0 0 18 17" fill="none" xmlns="http://www.w3.org/2000/svg">
<path d="M7.77789 1.18945H6.27169C2.5062 1.18945 1 2.69565 1 6.46114V10.9797C1 14.7452 2.5062 16.2514 6.27169 16.2514H10.7903C14.5558 16.2514 16.062 14.7452 16.062 10.9797V9.47354" stroke="#545FDD" stroke-width="1.5" stroke-linecap="round" stroke-linejoin="round"/>
<path d="M11.5735 1.95736L5.63908 7.89178C5.41315 8.11771 5.18722 8.56203 5.14204 8.88587L4.81821 11.1527C4.69771 11.9736 5.2776 12.5459 6.09847 12.433L8.3653 12.1091C8.6816 12.0639 9.12593 11.838 9.35939 11.6121L15.2938 5.67767C16.318 4.65345 16.8 3.46356 15.2938 1.95736C13.7876 0.451164 12.5977 0.933147 11.5735 1.95736Z" stroke="#545FDD" stroke-width="1.5" stroke-miterlimit="10" stroke-linecap="round" stroke-linejoin="round"/>
<path d="M10.7225 2.80859C10.9722 3.69534 11.4455 4.50311 12.0969 5.15453C12.7483 5.80594 13.5561 6.27918 14.4428 6.5289" stroke="#545FDD" stroke-width="1.5" stroke-miterlimit="10" stroke-linecap="round" stroke-linejoin="round"/>
</svg>
