<svg width="20" height="20" viewBox="0 0 20 20" fill="none" xmlns="http://www.w3.org/2000/svg">
<g clip-path="url(#clip0_76_3583)">
<path d="M10.75 8.26875V10.2625H12.7C12.85 10.2625 12.925 10.4 12.925 10.5375L12.625 11.8438C12.625 11.9125 12.475 11.9812 12.4 11.9812H10.75V17H8.5V12.05H7.225C7.075 12.05 7 11.9813 7 11.8438V10.5375C7 10.4 7.075 10.3313 7.225 10.3313H8.5V8.0625C8.5 6.89375 9.475 6 10.75 6H12.775C12.925 6 13 6.06875 13 6.20625V7.85625C13 7.99375 12.925 8.0625 12.775 8.0625H10.975C10.825 8.0625 10.75 8.13125 10.75 8.26875Z" stroke="#545FDD" stroke-width="1.5" stroke-miterlimit="10" stroke-linecap="round"/>
<path d="M12.1 17H7.9C4.4 17 3 15.6 3 12.1V7.9C3 4.4 4.4 3 7.9 3H12.1C15.6 3 17 4.4 17 7.9V12.1C17 15.6 15.6 17 12.1 17Z" stroke="#545FDD" stroke-width="1.5" stroke-linecap="round" stroke-linejoin="round"/>
</g>
<defs>
<clipPath id="clip0_76_3583">
<rect width="20" height="20" fill="white"/>
</clipPath>
</defs>
</svg>
