<svg width="19" height="19" viewBox="0 0 19 19" fill="none" xmlns="http://www.w3.org/2000/svg">
<path d="M13.75 14.6H10.35L6.5675 17.116C6.43985 17.2011 6.29149 17.2499 6.13825 17.2573C5.98501 17.2647 5.83265 17.2304 5.6974 17.1579C5.56215 17.0855 5.4491 16.9777 5.37031 16.8461C5.29152 16.7145 5.24994 16.5639 5.25 16.4105V14.6C2.7 14.6 1 12.9 1 10.35V5.25C1 2.7 2.7 1 5.25 1H13.75C16.3 1 18 2.7 18 5.25V10.35C18 12.9 16.3 14.6 13.75 14.6Z" stroke="#545FDD" stroke-width="1.5" stroke-miterlimit="10" stroke-linecap="round" stroke-linejoin="round"/>
<path d="M9.49999 8.59062V8.41212C9.49999 7.83412 9.85699 7.52812 10.214 7.28162C10.5625 7.04362 10.911 6.73763 10.911 6.17663C10.911 5.39463 10.282 4.76562 9.49999 4.76562C8.71799 4.76562 8.08899 5.39463 8.08899 6.17663M9.49574 10.6221H9.50424" stroke="#545FDD" stroke-width="1.5" stroke-linecap="round" stroke-linejoin="round"/>
</svg>
