<svg width="22" height="24" viewBox="0 0 22 24" fill="none" xmlns="http://www.w3.org/2000/svg">
<path d="M2 4.22222H8.75M8.75 4.22222C8.75 5.44952 9.75733 6.44444 11 6.44444C12.2427 6.44444 13.25 5.44952 13.25 4.22222M8.75 4.22222C8.75 2.99492 9.75733 2 11 2C12.2427 2 13.25 2.99492 13.25 4.22222M13.25 4.22222H20M2 12H15.5M15.5 12C15.5 13.2273 16.5073 14.2222 17.75 14.2222C18.9927 14.2222 20 13.2273 20 12C20 10.7727 18.9927 9.77778 17.75 9.77778C16.5073 9.77778 15.5 10.7727 15.5 12ZM6.5 19.7778H20M6.5 19.7778C6.5 18.5504 5.49264 17.5556 4.25 17.5556C3.00736 17.5556 2 18.5504 2 19.7778C2 21.0051 3.00736 22 4.25 22C5.49264 22 6.5 21.0051 6.5 19.7778Z" stroke="#545FDD" stroke-width="2.5" stroke-linecap="round"/>
</svg>
