<svg width="33" height="33" viewBox="0 0 33 33" fill="none" xmlns="http://www.w3.org/2000/svg">
<path d="M3.65153 25.9368C5.62143 29.6616 9.55494 31 16.5 31C26.0964 31 29.943 28.4446 30.8043 20.569M3.65153 25.9368C2.47635 23.7145 2 20.6432 2 16.5C2 5.41177 5.41177 2 16.5 2C27.5882 2 31 5.41177 31 16.5C31 17.9918 30.9382 19.3447 30.8043 20.569M3.65153 25.9368L8.96988 20.6183C10.3023 19.286 12.4625 19.286 13.7948 20.6183L14.0875 20.9111C15.4198 22.2434 17.5802 22.2434 18.9125 20.9111L22.617 17.2066C23.9492 15.8743 26.1096 15.8743 27.4419 17.2066L30.8043 20.569M14.267 11.1196C14.267 12.8579 12.8562 14.2687 11.1179 14.2687C9.38135 14.2687 7.97059 12.8579 7.97059 11.1196C7.97059 9.38135 9.38135 7.97059 11.1179 7.97059C12.8562 7.97059 14.267 9.38135 14.267 11.1196Z" stroke="#545FDD" stroke-width="2.5" stroke-linecap="round" stroke-linejoin="round"/>
</svg>
