<svg width="23" height="17" viewBox="0 0 23 17" fill="none" xmlns="http://www.w3.org/2000/svg">
<path d="M22.0053 10.4641L22.0053 10.4641C22.5115 11.3408 22.6462 12.3626 22.3844 13.3397C22.3844 13.3397 22.3844 13.3397 22.3844 13.3397L22.2395 13.3009C21.9883 14.2387 21.3863 15.023 20.5447 15.5095C19.9832 15.8341 19.36 15.9999 18.7292 15.9999C18.4135 15.9999 18.0958 15.9584 17.7829 15.8743L22.0053 10.4641ZM22.0053 10.4641C21.4991 9.58823 20.682 8.96089 19.7055 8.69938C19.7055 8.69938 19.7055 8.69938 19.7055 8.69937L14.2369 7.23402L14.0921 7.19519L14.0532 7.34008L12.1694 14.3706L12.1306 14.5155L12.2755 14.5543L17.744 16.0192L22.0053 10.4641ZM13.4882 13.7316L14.8757 8.55301L19.4184 9.77028L19.4184 9.77028C20.1095 9.95542 20.6868 10.3986 21.0451 11.0189L21.0451 11.019C21.4036 11.6392 21.4988 12.3611 21.3135 13.0528C21.1284 13.7437 20.6854 14.3206 20.0648 14.6795L13.4882 13.7316ZM13.4882 13.7316L18.0308 14.9484C18.0308 14.9484 18.0308 14.9484 18.0308 14.9484C18.7223 15.1336 19.4442 15.038 20.0648 14.6795L13.4882 13.7316Z" fill="#707070" stroke="#707070" stroke-width="0.3"/>
<path d="M2.31973 11.0189L2.31971 11.019C1.96132 11.6392 1.86605 12.3612 2.05139 13.0529L2.31973 11.0189ZM2.31973 11.0189C2.67796 10.3986 3.2553 9.95553 3.94642 9.77028C3.94643 9.77028 3.94643 9.77027 3.94643 9.77027L8.48905 8.55301L9.87657 13.7316L5.33414 14.9485L2.31973 11.0189ZM3.30014 14.6796C3.92081 15.038 4.64255 15.1333 5.33404 14.9485L3.30014 14.6796ZM3.30014 14.6796C2.67955 14.3208 2.23664 13.7438 2.0514 13.0529L3.30014 14.6796ZM1.35971 10.4642L1.35968 10.4642C0.853524 11.3409 0.718693 12.3627 0.980607 13.3398C1.24202 14.3162 1.86927 15.1331 2.74527 15.6394C3.32947 15.9771 3.97843 16.15 4.63578 16.15C4.96481 16.15 5.2955 16.1064 5.62091 16.0193L5.62094 16.0193L11.0895 14.5544L11.2344 14.5156L11.1956 14.3707L9.31176 7.34008L9.27294 7.19519L9.12804 7.23402L3.65955 8.69947C3.65953 8.69947 3.65952 8.69948 3.65951 8.69948C2.68297 8.96089 1.86584 9.58834 1.35971 10.4642Z" fill="#707070" stroke="#707070" stroke-width="0.3"/>
<path d="M14.5652 5.44864C14.5652 5.08543 14.2696 4.7899 13.9064 4.7899C13.5433 4.7899 13.2478 5.0854 13.2477 5.44864H14.5652ZM14.5652 5.44864C14.5652 5.81185 14.2696 6.10738 13.9064 6.10738M14.5652 5.44864L13.9064 6.10738M13.9064 6.10738C13.5432 6.10738 13.2477 5.81187 13.2477 5.44867L13.9064 6.10738ZM13.9064 7.21602C14.8812 7.21602 15.6739 6.42329 15.6739 5.44854C15.6739 4.47379 14.8812 3.68105 13.9064 3.68105C12.9317 3.68105 12.1389 4.47379 12.1389 5.44854C12.1389 6.42329 12.9318 7.21602 13.9064 7.21602Z" fill="#707070" stroke="#707070" stroke-width="0.3"/>
<path d="M10.1173 4.43768C10.1173 4.18606 9.91233 3.9811 9.66071 3.9811C9.40914 3.9811 9.20422 4.18601 9.20412 4.43768H10.1173ZM10.1173 4.43768C10.1173 4.68931 9.91233 4.89427 9.66071 4.89427M10.1173 4.43768L9.66071 4.89427M9.66071 4.89427C9.4091 4.89427 9.20415 4.68933 9.20412 4.43773L9.66071 4.89427ZM8.09548 4.43768C8.09548 5.30085 8.79765 6.00291 9.66071 6.00291C10.5238 6.00291 11.2259 5.30075 11.2259 4.43768C11.2259 3.57462 10.5238 2.87246 9.66071 2.87246C8.79765 2.87246 8.09548 3.57451 8.09548 4.43768Z" fill="#707070" stroke="#707070" stroke-width="0.3"/>
<path d="M9.60846 1.60647C9.60846 2.46952 8.90641 3.17169 8.04324 3.17169C7.73708 3.17169 7.48882 2.92355 7.48892 2.61737L9.60846 1.60647ZM9.60846 1.60647C9.60846 1.30035 9.36026 1.05215 9.05414 1.05215M9.60846 1.60647L9.05414 1.05215M9.05414 1.05215C8.74802 1.05215 8.49982 1.30035 8.49982 1.60647M9.05414 1.05215L8.49982 1.60647M8.49982 1.60647C8.49982 1.85809 8.29486 2.06305 8.04324 2.06305M8.49982 1.60647L8.04324 2.06305M8.04324 2.06305C7.73714 2.06305 7.48895 2.31121 7.48892 2.6173L8.04324 2.06305Z" fill="#707070" stroke="#707070" stroke-width="0.3"/>
<path d="M10.9874 7.07077L10.9874 7.07077C11.8459 7.16121 12.4709 7.93295 12.3803 8.79132L12.3803 8.79132C12.3502 9.07611 12.1096 9.28767 11.8293 9.28767L10.9874 7.07077ZM10.9874 7.07077L10.9868 7.07071M10.9874 7.07077L10.9868 7.07071M10.9868 7.07071C10.6777 7.03943 10.4103 7.26053 10.3781 7.56402L10.3781 7.56415M10.9868 7.07071L10.3781 7.56415M10.3781 7.56415C10.3461 7.8684 10.567 8.14124 10.8714 8.17326L10.3781 7.56415ZM11.1786 8.34046L11.1786 8.34043C11.1014 8.2452 10.9928 8.18609 10.8714 8.17326L11.1786 8.34046ZM11.1786 8.34046C11.2553 8.43503 11.2904 8.55367 11.2776 8.67526L11.2776 8.67534M11.1786 8.34046L11.2776 8.67534M11.2776 8.67534C11.2456 8.97946 11.4663 9.25221 11.7706 9.2844L11.2776 8.67534Z" fill="#707070" stroke="#707070" stroke-width="0.3"/>
<path d="M17.0663 1.73841C17.3479 1.85806 17.4795 2.18332 17.3599 2.46516C17.2402 2.74703 16.9149 2.87826 16.6332 2.75894L16.6332 2.75893C16.4011 2.66064 16.1325 2.76907 16.0342 3.00066C15.9445 3.21212 15.7392 3.33839 15.5239 3.33867L15.5237 3.33867C15.4511 3.33867 15.3776 3.32415 15.3074 3.29431L17.0663 1.73841ZM17.0663 1.73841C16.2723 1.40047 15.3507 1.77279 15.0137 2.5675L17.0663 1.73841ZM15.8961 2.94207C16.0268 2.63403 16.3836 2.49031 16.6917 2.62082L17.0075 1.87643C16.2899 1.57098 15.4564 1.90765 15.1518 2.62612C15.0645 2.83168 15.1605 3.06897 15.366 3.15624C15.4176 3.17816 15.4711 3.18867 15.5237 3.18867C15.6812 3.18847 15.8308 3.09609 15.8961 2.94207ZM15.0137 2.56757C14.894 2.84941 15.0257 3.17465 15.3073 3.29428L15.0137 2.56757Z" fill="#707070" stroke="#707070" stroke-width="0.3"/>
<path d="M12.0347 2.21296V2.21289C12.0346 2.07295 12.1488 1.95864 12.289 1.95864C12.429 1.95864 12.5433 2.07293 12.5433 2.21296C12.5433 2.353 12.429 2.46728 12.289 2.46728C12.149 2.46728 12.0347 2.353 12.0347 2.21296ZM12.289 3.57612C13.0408 3.57612 13.6521 2.96484 13.6521 2.21306C13.6521 1.46129 13.0408 0.85 12.289 0.85C11.5372 0.85 10.9259 1.46129 10.9259 2.21306C10.9259 2.96484 11.5372 3.57612 12.289 3.57612Z" fill="#707070" stroke="#707070" stroke-width="0.3"/>
</svg>
