<svg width="13" height="15" viewBox="0 0 13 15" fill="none" xmlns="http://www.w3.org/2000/svg">
<path d="M6.38921 8.14365C6.64529 8.14365 6.89886 8.09321 7.13544 7.99522C7.37203 7.89722 7.58699 7.75358 7.76807 7.57251C7.94914 7.39144 8.09278 7.17647 8.19077 6.93988C8.28877 6.7033 8.33921 6.44973 8.33921 6.19365C8.33921 5.93757 8.28877 5.684 8.19077 5.44742C8.09278 5.21083 7.94914 4.99587 7.76807 4.81479C7.58699 4.63372 7.37203 4.49008 7.13544 4.39209C6.89886 4.29409 6.64529 4.24365 6.38921 4.24365C5.87204 4.24365 5.37605 4.4491 5.01035 4.81479C4.64465 5.18049 4.43921 5.67648 4.43921 6.19365C4.43921 6.71082 4.64465 7.20681 5.01035 7.57251C5.37605 7.93821 5.87204 8.14365 6.38921 8.14365Z" stroke="#707070" stroke-opacity="0.7" stroke-width="1.5"/>
<path d="M1.15172 5.05625C2.38297 -0.356249 10.4017 -0.349998 11.6267 5.0625C12.3455 8.2375 10.3705 10.925 8.63922 12.5875C8.03427 13.171 7.22657 13.497 6.3861 13.497C5.54563 13.497 4.73793 13.171 4.13297 12.5875C2.40797 10.925 0.432972 8.23125 1.15172 5.05625Z" stroke="#707070" stroke-opacity="0.7" stroke-width="1.5"/>
</svg>
