<svg width="16" height="15" viewBox="0 0 16 15" fill="none" xmlns="http://www.w3.org/2000/svg">
<path d="M11.1111 3.72861L15 7.50001M15 7.50001L11.1111 11.2714M15 7.50001H5.66667M8 3.72861C8 3.50564 8 3.39416 7.99144 3.29761C7.90262 2.29396 7.14048 1.4681 6.12169 1.27169C6.02369 1.25283 5.90935 1.24046 5.68094 1.21587L4.88651 1.13026C3.69304 1.00166 3.09627 0.93739 2.62218 1.08447C1.99006 1.28066 1.47399 1.72863 1.20314 2.31622C1 2.75694 1 3.33917 1 4.50378V10.4962C1 11.6608 1 12.2431 1.20314 12.6838C1.47399 13.2714 1.99006 13.7193 2.62218 13.9155C3.09627 14.0626 3.69302 13.9983 4.88651 13.8697L5.68094 13.7841C5.90943 13.7595 6.02367 13.7472 6.12169 13.7283C7.14048 13.5319 7.90262 12.706 7.99144 11.7024C8 11.6058 8 11.4943 8 11.2714" stroke="#545FDD" stroke-width="1.5" stroke-linecap="round" stroke-linejoin="round"/>
</svg>
