<svg width="17" height="15" viewBox="0 0 17 15" fill="none" xmlns="http://www.w3.org/2000/svg">
<path d="M5.77169 1.49654V11.2461M11.2283 3.46144V13.496M1 4.3314V11.6286C1 13.0535 2.0274 13.6385 3.27549 12.9335L5.06393 11.9285C5.45206 11.711 6.09894 11.6885 6.50228 11.891L10.4977 13.8634C10.9011 14.0584 11.5479 14.0434 11.9361 13.8259L15.2314 11.966C15.6499 11.726 16 11.1411 16 10.6611V3.36395C16 1.93902 14.9726 1.35405 13.7245 2.05901L11.9361 3.06396C11.5479 3.28145 10.9011 3.30395 10.4977 3.10146L6.50228 1.13656C6.09894 0.941567 5.45206 0.956566 5.06393 1.17406L1.76865 3.03397C1.34247 3.27395 1 3.85893 1 4.3314Z" stroke="#545FDD" stroke-width="1.5" stroke-linecap="round" stroke-linejoin="round"/>
</svg>
