<svg width="20" height="21" viewBox="0 0 20 21" fill="none" xmlns="http://www.w3.org/2000/svg">
<path fill-rule="evenodd" clip-rule="evenodd" d="M2.95848 4.46989L0.595386 2.03934C0.141814 1.57282 0.141814 0.816421 0.595386 0.3499C1.04896 -0.116633 1.78436 -0.116633 2.23793 0.3499L19.6598 18.2691C20.1134 18.7356 20.1134 19.4921 19.6598 19.9586C19.2062 20.425 18.4708 20.425 18.0172 19.9586L15.5871 17.4591C15.5243 17.7797 15.4615 18.0729 15.401 18.3373C15.0402 19.9158 13.658 20.8696 12.2026 20.8696C11.33 20.8696 10.4892 20.5332 9.84602 19.9267L6.44388 16.7191C6.01554 16.3152 5.45544 16.0911 4.87427 16.0911H4.64583C2.08001 16.0911 0 13.9517 0 11.3126V8.92341C0 6.89657 1.22688 5.16445 2.95848 4.46989ZM13.578 15.3926C13.4399 16.3653 13.2816 17.1703 13.1398 17.7903C13.0529 18.1705 12.7036 18.4803 12.2026 18.4803C11.9112 18.4803 11.6305 18.368 11.4156 18.1654L8.01359 14.9579C7.15678 14.15 6.03667 13.7019 4.87427 13.7019H4.64583C3.36292 13.7019 2.32291 12.6322 2.32291 11.3126V8.92341C2.32291 7.60388 3.36292 6.53418 4.64583 6.53418H4.87427C4.9044 6.53418 4.93452 6.53388 4.96459 6.53328L13.578 15.3926Z" fill="white"/>
<path d="M13.546 2.9239C13.87 4.33434 14.2846 6.75347 14.3058 9.9532L16.474 12.1739C16.5045 11.5522 16.5218 10.8966 16.5218 10.2091C16.5218 6.68348 16.0681 3.99747 15.7023 2.40452C15.3582 0.905639 14.0402 0 12.6523 0C11.8202 0 11.0185 0.319443 10.4051 0.895294L7.82611 3.31663L9.39384 4.92236L11.9019 2.56767C12.1068 2.37537 12.3745 2.26869 12.6523 2.26869C13.13 2.26869 13.4632 2.56291 13.546 2.9239Z" fill="white"/>
</svg>
