<svg width="17" height="19" viewBox="0 0 17 19" fill="none" xmlns="http://www.w3.org/2000/svg">
<path d="M7.01875 1.19765L2.77672 2.79585C1.7991 3.1614 1 4.31754 1 5.35467V11.671C1 12.6741 1.66308 13.9917 2.47068 14.5953L6.12614 17.3242C7.32479 18.2253 9.29704 18.2253 10.4957 17.3242L14.1511 14.5953C14.9587 13.9917 15.6218 12.6741 15.6218 11.671V5.35467C15.6218 4.30904 14.8227 3.15289 13.8451 2.78735L9.60307 1.19765C8.88048 0.934117 7.72434 0.934117 7.01875 1.19765Z" stroke="#545FDD" stroke-width="1.5" stroke-linecap="round" stroke-linejoin="round"/>
<path d="M8.30242 9.92875C8.75334 9.92875 9.1858 9.74962 9.50465 9.43076C9.8235 9.11191 10.0026 8.67946 10.0026 8.22853C10.0026 7.77761 9.8235 7.34515 9.50465 7.0263C9.1858 6.70745 8.75334 6.52832 8.30242 6.52832C7.85149 6.52832 7.41904 6.70745 7.10018 7.0263C6.78133 7.34515 6.6022 7.77761 6.6022 8.22853C6.6022 8.67946 6.78133 9.11191 7.10018 9.43076C7.41904 9.74962 7.85149 9.92875 8.30242 9.92875ZM8.30242 9.92875V12.4791" stroke="#545FDD" stroke-width="1.5" stroke-miterlimit="10" stroke-linecap="round" stroke-linejoin="round"/>
</svg>
