<svg width="18" height="18" viewBox="0 0 18 18" fill="none" xmlns="http://www.w3.org/2000/svg">
<path d="M9.09581 9.62464C9.03206 9.61664 8.96756 9.61664 8.90381 9.62464C8.22539 9.60181 7.5824 9.31615 7.11069 8.82802C6.63898 8.33989 6.37549 7.68751 6.37587 7.00871C6.37587 5.56074 7.54384 4.38477 8.99981 4.38477C9.68734 4.38358 10.3478 4.65261 10.8388 5.13387C11.3298 5.61514 11.6121 6.27008 11.6247 6.9575C11.6372 7.64492 11.3792 8.30975 10.9061 8.80868C10.4331 9.3076 9.78292 9.60065 9.09581 9.62464ZM14.3917 14.9045C12.9215 16.2557 10.9966 17.004 8.99981 17.0005C6.91986 17.0005 5.03191 16.2085 3.60794 14.9045C3.68794 14.1525 4.16793 13.4165 5.02391 12.8406C7.21585 11.3846 10.7998 11.3846 12.9757 12.8406C13.8317 13.4165 14.3117 14.1525 14.3917 14.9045Z" stroke="#545FDD" stroke-width="1.5" stroke-linecap="round" stroke-linejoin="round"/>
<path d="M8.9998 16.9996C13.4181 16.9996 16.9996 13.4181 16.9996 8.9998C16.9996 4.58151 13.4181 1 8.9998 1C4.58151 1 1 4.58151 1 8.9998C1 13.4181 4.58151 16.9996 8.9998 16.9996Z" stroke="#545FDD" stroke-width="1.5" stroke-linecap="round" stroke-linejoin="round"/>
</svg>
