<svg width="16" height="18" viewBox="0 0 16 18" fill="none" xmlns="http://www.w3.org/2000/svg">
<path d="M6.26534 15.1566L6.26534 15.1566C6.1998 15.0347 6.17059 14.9132 6.17059 14.7974C6.17059 14.4238 5.86794 14.1207 5.49442 14.1207C5.12089 14.1207 4.81824 14.4238 4.81824 14.7974C4.81824 15.148 4.90824 15.4886 5.0743 15.7976L5.0743 15.7976C5.23975 16.1055 5.47524 16.3725 5.75672 16.5895C6.03809 16.8064 6.36351 16.972 6.71143 17.0831L6.71144 17.0831C7.05952 17.1942 7.42864 17.2503 7.79878 17.2503C8.16893 17.2503 8.53804 17.1942 8.88612 17.0831L8.88613 17.0831C9.23402 16.972 9.55948 16.8064 9.8408 16.5895C10.1223 16.3725 10.3578 16.1055 10.5233 15.7976L10.5233 15.7976C10.6893 15.4886 10.7793 15.148 10.7793 14.7974C10.7793 14.4238 10.4767 14.1207 10.1032 14.1207C9.72965 14.1207 9.42699 14.4238 9.42699 14.7974C9.42699 14.9132 9.39775 15.0347 9.3322 15.1566C9.26601 15.2798 9.16203 15.4044 9.01558 15.5173C8.86897 15.6303 8.68633 15.7263 8.47507 15.7937L8.47504 15.7937C8.26402 15.8612 8.03385 15.897 7.79878 15.897C7.56371 15.897 7.33354 15.8612 7.12243 15.7937L7.12242 15.7937C6.91122 15.7263 6.72856 15.6303 6.58194 15.5173C6.43547 15.4044 6.33151 15.2798 6.26534 15.1566Z" fill="#545FDD" stroke="#545FDD" stroke-width="0.2"/>
<path d="M12.5477 8.21235L12.647 8.20048L12.5477 8.21235C12.6328 8.92432 12.8297 9.62014 13.1325 10.2737L13.3358 10.7126L13.3358 10.7126C13.9256 11.9855 13.1575 13.4732 11.7791 13.7282L11.6561 13.7509C9.10613 14.2227 6.49134 14.2227 3.94141 13.7509L3.92322 13.8493L3.94141 13.7509C2.56538 13.4964 1.8372 11.9726 2.50318 10.7405L2.41521 10.693L2.50319 10.7405L2.67711 10.4187C3.20547 9.4413 3.48215 8.34749 3.48215 7.23614V6.2202C3.48215 4.76703 4.30389 3.4391 5.60364 2.79172C6.77882 2.2064 8.1242 2.09753 9.36461 2.46917C9.72243 2.57638 10.0993 2.37294 10.2063 2.01496C10.3134 1.65701 10.1103 1.27987 9.75251 1.17267L9.7238 1.26846L9.7525 1.17267C8.18542 0.703159 6.48577 0.840626 5.00109 1.58014C3.2419 2.45634 2.1298 4.25358 2.1298 6.2202V7.23614C2.1298 8.1226 1.9091 8.99511 1.48765 9.77479L1.57562 9.82234L1.48765 9.77479L1.31372 10.0966C0.210995 12.1366 1.41652 14.6602 3.69557 15.0817C6.40805 15.5836 9.18944 15.5836 11.9019 15.0817L12.025 15.059C14.2721 14.6433 15.524 12.218 14.5627 10.1433C14.5627 10.1433 14.5627 10.1433 14.5627 10.1433L14.3594 9.70442L14.3594 9.70441C14.1166 9.18043 13.9588 8.62247 13.8905 8.05159C13.8461 7.68057 13.5096 7.41567 13.1388 7.46007C12.7679 7.50448 12.5034 7.84135 12.5477 8.21235Z" fill="#545FDD" stroke="#545FDD" stroke-width="0.2"/>
<path d="M11.2589 4.38469C11.2589 3.69669 11.8161 3.1391 12.5033 3.1391C13.1904 3.1391 13.7477 3.69669 13.7477 4.38469C13.7477 5.0727 13.1904 5.63028 12.5033 5.63028C11.8161 5.63028 11.2589 5.0727 11.2589 4.38469ZM12.5033 1.78574C11.0691 1.78574 9.90652 2.94941 9.90652 4.38469C9.90652 5.81997 11.0691 6.98364 12.5033 6.98364C13.9375 6.98364 15.1 5.81996 15.1 4.38469C15.1 2.94941 13.9375 1.78574 12.5033 1.78574Z" fill="#545FDD" stroke="#545FDD" stroke-width="0.2"/>
</svg>
