<svg width="15" height="15" viewBox="0 0 15 15" fill="none" xmlns="http://www.w3.org/2000/svg">
<path d="M6.85088 12.698C8.40263 12.698 9.89083 12.0818 10.9881 10.9849C12.0853 9.88796 12.7018 8.40024 12.7018 6.84899C12.7018 5.29774 12.0853 3.81003 10.9881 2.71313C9.89083 1.61623 8.40263 1 6.85088 1C5.29913 1 3.81094 1.61623 2.71368 2.71313C1.61643 3.81003 1 5.29774 1 6.84899C1 8.40024 1.61643 9.88796 2.71368 10.9849C3.81094 12.0818 5.29913 12.698 6.85088 12.698ZM12.0062 13.1464C12.3507 14.1862 13.1373 14.2902 13.7419 13.3804C14.2945 12.5485 13.9305 11.8661 12.9293 11.8661C12.1882 11.8596 11.7721 12.438 12.0062 13.1464Z" stroke="#707070" stroke-linecap="round" stroke-linejoin="round"/>
</svg>
