<svg width="17" height="16" viewBox="0 0 17 16" fill="none" xmlns="http://www.w3.org/2000/svg">
<path d="M8.41612 10.2241C9.00618 10.2241 9.57208 9.98968 9.98932 9.57245C10.4066 9.15521 10.641 8.58931 10.641 7.99925C10.641 7.40919 10.4066 6.84329 9.98932 6.42605C9.57208 6.00882 9.00618 5.77441 8.41612 5.77441C7.82606 5.77441 7.26016 6.00882 6.84292 6.42605C6.42569 6.84329 6.19128 7.40919 6.19128 7.99925C6.19128 8.58931 6.42569 9.15521 6.84292 9.57245C7.26016 9.98968 7.82606 10.2241 8.41612 10.2241Z" stroke="#545FDD" stroke-width="1.5" stroke-miterlimit="10" stroke-linecap="round" stroke-linejoin="round"/>
<path d="M1 8.65262V7.34738C1 6.57611 1.63037 5.93832 2.40906 5.93832C3.75138 5.93832 4.30017 4.98906 3.62531 3.82473C3.23967 3.15728 3.46957 2.28959 4.14443 1.90395L5.42742 1.16976C6.0133 0.821198 6.76974 1.02885 7.1183 1.61472L7.19987 1.75563C7.86732 2.91996 8.96491 2.91996 9.63978 1.75563L9.72135 1.61472C10.0699 1.02885 10.8264 0.821198 11.4122 1.16976L12.6952 1.90395C13.3701 2.28959 13.6 3.15728 13.2143 3.82473C12.5395 4.98906 13.0883 5.93832 14.4306 5.93832C15.2019 5.93832 15.8397 6.56869 15.8397 7.34738V8.65262C15.8397 9.42389 15.2093 10.0617 14.4306 10.0617C13.0883 10.0617 12.5395 11.0109 13.2143 12.1753C13.6 12.8501 13.3701 13.7104 12.6952 14.096L11.4122 14.8302C10.8264 15.1788 10.0699 14.9712 9.72135 14.3853L9.63978 14.2444C8.97233 13.08 7.87474 13.08 7.19987 14.2444L7.1183 14.3853C6.76974 14.9712 6.0133 15.1788 5.42742 14.8302L4.14443 14.096C3.82116 13.9099 3.58495 13.6031 3.48762 13.243C3.3903 12.8829 3.43981 12.4989 3.62531 12.1753C4.30017 11.0109 3.75138 10.0617 2.40906 10.0617C1.63037 10.0617 1 9.42389 1 8.65262Z" stroke="#545FDD" stroke-width="1.5" stroke-miterlimit="10" stroke-linecap="round" stroke-linejoin="round"/>
</svg>
