<svg width="16" height="18" viewBox="0 0 16 18" fill="none" xmlns="http://www.w3.org/2000/svg">
<path d="M9.38485 3.66667C9.38485 2.13554 10.6674 0.9 12.2424 0.9C13.8174 0.9 15.1 2.13554 15.1 3.66667C15.1 5.19779 13.8174 6.43333 12.2424 6.43333C11.352 6.43333 10.5559 6.0389 10.0316 5.41976L6.37739 7.89343C6.53031 8.23233 6.61515 8.60664 6.61515 9C6.61515 9.39336 6.53031 9.76767 6.37739 10.1066L10.0316 12.5802C10.5559 11.9611 11.352 11.5667 12.2424 11.5667C13.8174 11.5667 15.1 12.8022 15.1 14.3333C15.1 15.8644 13.8174 17.1 12.2424 17.1C10.6674 17.1 9.38485 15.8644 9.38485 14.3333C9.38485 14.1891 9.39624 14.0473 9.41829 13.9089L5.45787 11.228L9.38485 3.66667ZM9.38485 3.66667C9.38485 3.81092 9.39624 3.95266 9.4183 4.0911M9.38485 3.66667L9.4183 4.0911M9.4183 4.0911L5.45782 6.77201C5.45782 6.77202 5.45781 6.77202 5.45781 6.77202C5.45683 6.77269 5.45585 6.77335 5.45488 6.77401C4.98007 6.43411 4.39278 6.23333 3.75758 6.23333C2.18256 6.23333 0.9 7.4689 0.9 9C0.9 10.5311 2.18256 11.7667 3.75758 11.7667C4.39278 11.7667 4.98008 11.5659 5.45489 11.226C5.45586 11.2266 5.45683 11.2273 5.45781 11.228L9.4183 4.0911ZM10.8576 3.66667C10.8576 2.932 11.4744 2.33077 12.2424 2.33077C13.0104 2.33077 13.6273 2.932 13.6273 3.66667C13.6273 4.40133 13.0104 5.00256 12.2424 5.00256C11.4744 5.00256 10.8576 4.40133 10.8576 3.66667ZM2.37273 9C2.37273 8.26534 2.98956 7.6641 3.75758 7.6641C4.52559 7.6641 5.14242 8.26534 5.14242 9C5.14242 9.73466 4.52559 10.3359 3.75758 10.3359C2.98956 10.3359 2.37273 9.73466 2.37273 9ZM10.8576 14.3333C10.8576 13.5987 11.4744 12.9974 12.2424 12.9974C13.0104 12.9974 13.6273 13.5987 13.6273 14.3333C13.6273 15.068 13.0104 15.6692 12.2424 15.6692C11.4744 15.6692 10.8576 15.068 10.8576 14.3333Z" fill="#545FDD" stroke="#545FDD" stroke-width="0.2"/>
</svg>
