<svg width="20" height="18" viewBox="0 0 20 18" fill="none" xmlns="http://www.w3.org/2000/svg">
<path d="M18.5899 21C18.5899 17.13 14.7399 14 9.99991 14C5.25991 14 1.40991 17.13 1.40991 21M9.99991 11C11.326 11 12.5978 10.4732 13.5354 9.53553C14.4731 8.59785 14.9999 7.32608 14.9999 6C14.9999 4.67392 14.4731 3.40215 13.5354 2.46447C12.5978 1.52678 11.326 1 9.99991 1C8.67383 1 7.40206 1.52678 6.46438 2.46447C5.5267 3.40215 4.99991 4.67392 4.99991 6C4.99991 7.32608 5.5267 8.59785 6.46438 9.53553C7.40206 10.4732 8.67383 11 9.99991 11Z" stroke="#707070" stroke-width="1.5" stroke-linecap="round" stroke-linejoin="round"/>
</svg>
